<svg xmlns="http://www.w3.org/2000/svg" viewBox="0 0 157.32 59.32"><defs><style>.cls-1{fill:#1550a0;}.cls-2{fill:#f68b3d;}</style></defs><g id="Layer_2" data-name="Layer 2"><g id="Layer_1-2" data-name="Layer 1"><path class="cls-1" d="M120.92,22.67V42.1a20.33,20.33,0,0,1-.39,5.18,1.64,1.64,0,0,1-1.74,1.1,1.52,1.52,0,0,1-1.57-1,16.07,16.07,0,0,1-.39-4.57V1.8H107.3a14.43,14.43,0,0,1,1.51,1.91c1.75,2.63,2.6,6.5,2.6,11.85,0,3.89-.69,6.66-2.12,8.45a7.88,7.88,0,0,1-1.11,1.13,9.32,9.32,0,0,1,2,2.12c1.51,2.22,2.25,5.34,2.25,9.52v5.06c0,4.16-.51,7.25-1.54,9.43a9.72,9.72,0,0,1-2.64,3.42,17.76,17.76,0,0,0,2.5,1.32,21.46,21.46,0,0,0,8.65,1.63,19.77,19.77,0,0,0,7.68-1.37,12.51,12.51,0,0,0,5.25-4,11.84,11.84,0,0,0,2.4-5.17,63.28,63.28,0,0,0,.41-8.73V22.67Zm0-20.87V9.91h14.22V1.8Z"/><path class="cls-1" d="M107.83,28.85a9.29,9.29,0,0,0-5.22-3.31c-.46-.15-1-.27-1.46-.39.51-.12,1-.25,1.46-.38a8.9,8.9,0,0,0,4.47-2.52q1.5-1.89,1.5-6.69,0-7.08-2.13-10.28a10.35,10.35,0,0,0-3.78-3.48,9.32,9.32,0,0,0-1.81-.75A37.28,37.28,0,0,0,90.68,0H76.49V30.29H90.71V30c2.12.07,3.42.35,3.92.84s.74,1.92.74,4.26v5.1c0,2.21-.27,3.59-.83,4.16s-1.83.87-3.83.94v-5.2H76.49V54.69H92.94q8.58,0,11.35-1a6.58,6.58,0,0,0,1.71-.88,6.83,6.83,0,0,0,2.33-2.77q1.26-2.67,1.26-8.22V36.78C109.59,33.22,109,30.57,107.83,28.85Zm-13-8.4c-.39.69-1.27,1-2.67,1l-1.42,0V9.36a11,11,0,0,1,3,.3A2.32,2.32,0,0,1,94.9,11a9.69,9.69,0,0,1,.47,3.6C95.37,17.8,95.18,19.77,94.8,20.45Z"/><path class="cls-2" d="M157.32,49.26v7.23h-5.51a39.14,39.14,0,0,1-6.65-.39,7.18,7.18,0,0,1-3.52-1.79,6,6,0,0,1-1.89-3.21,58.24,58.24,0,0,1-.37-8.5V19.84H118.74V12.75H139l.4-7.06h13.68v7.06h3.68v7.09h-3.68v24c0,3,.15,4.59.46,4.93S155.09,49.26,157.32,49.26Z"/><path class="cls-2" d="M10.41,42.44v-3a5.94,5.94,0,0,0-.26-2.15,1,1,0,0,0-1-.57.94.94,0,0,0-.94.5A6.29,6.29,0,0,0,8,39.4V51.83A4.84,4.84,0,0,0,8.38,54a1.13,1.13,0,0,0,1,.7,1.09,1.09,0,0,0,1.11-.73,9,9,0,0,0,.28-2.78V48H18a40.57,40.57,0,0,1-.23,4.74A7.54,7.54,0,0,1,16.41,56a7,7,0,0,1-2.93,2.5A10.38,10.38,0,0,1,9,59.32a10.66,10.66,0,0,1-5.38-1.16A6.39,6.39,0,0,1,.83,54.9,16.86,16.86,0,0,1,0,49V41.47A14.51,14.51,0,0,1,.68,36.4a6.59,6.59,0,0,1,2.88-3A10.15,10.15,0,0,1,8.92,32a10.32,10.32,0,0,1,5.36,1.33,6.56,6.56,0,0,1,3,3.36A17.54,17.54,0,0,1,18,42.44Z"/><path class="cls-2" d="M38.57,35.56a26.12,26.12,0,0,1,.33,5.11V58.84h-8V40.3a11.57,11.57,0,0,0-.23-3,1,1,0,0,0-1-.66,1,1,0,0,0-1,.68A9.08,9.08,0,0,0,28.38,40v18.8h-8V26.69h8v7.24a7.09,7.09,0,0,1,2.23-1.44A6.87,6.87,0,0,1,33.18,32a5.94,5.94,0,0,1,3.59,1.08A4.31,4.31,0,0,1,38.57,35.56Z"/><path class="cls-2" d="M59,37a5.62,5.62,0,0,0-2.49-3.54c-1.37-1-3.42-1.44-6.13-1.44a10.59,10.59,0,0,0-5.52,1.28A6.5,6.5,0,0,0,42,36.21a12.48,12.48,0,0,0-.71,4.72V42.7h7.53V39.94a10.77,10.77,0,0,1,.2-2.73c.13-.35.47-.53,1-.53a1,1,0,0,1,1,.63A7.2,7.2,0,0,1,51.37,40a5.42,5.42,0,0,1-.28,2.18c-.18.36-1.59,1-4.23,2.09q-3.69,1.42-4.62,2.5c-.63.71-.94,2.06-.94,4V53q0,4,1.76,5.18a6.83,6.83,0,0,0,3.86,1.18,4.91,4.91,0,0,0,4.67-2.83v2.35h7.8V45.62A56.79,56.79,0,0,0,59,37ZM51.37,51.73a7.54,7.54,0,0,1-.23,2.45,1,1,0,0,1-1,.47,1.05,1.05,0,0,1-1.06-.59,8,8,0,0,1-.27-2.65,9.23,9.23,0,0,1,.31-2.74,6,6,0,0,1,2.23-2.36Z"/><path class="cls-2" d="M10.82,51.14a9,9,0,0,1-.28,2.78,1.09,1.09,0,0,1-1.11.73,1.13,1.13,0,0,1-1-.7A4.84,4.84,0,0,1,8,51.83V39.4a6.29,6.29,0,0,1,.24-2.22.94.94,0,0,1,.94-.5,1,1,0,0,1,1,.57,5.94,5.94,0,0,1,.26,2.15v3H18a17.54,17.54,0,0,0-.73-5.74,6.56,6.56,0,0,0-3-3.36A10.32,10.32,0,0,0,8.92,32a10.15,10.15,0,0,0-5.36,1.34,6.59,6.59,0,0,0-2.88,3A14.51,14.51,0,0,0,0,41.47V49A16.86,16.86,0,0,0,.83,54.9a6.39,6.39,0,0,0,2.81,3.26A10.66,10.66,0,0,0,9,59.32a10.38,10.38,0,0,0,4.46-.85A7,7,0,0,0,16.41,56a7.54,7.54,0,0,0,1.33-3.23A40.57,40.57,0,0,0,18,48H10.82Z"/><path class="cls-2" d="M38.57,35.56a4.31,4.31,0,0,0-1.8-2.47A5.94,5.94,0,0,0,33.18,32a6.87,6.87,0,0,0-2.57.48,7.09,7.09,0,0,0-2.23,1.44V26.69h-8V58.84h8V40a9.08,9.08,0,0,1,.25-2.68,1,1,0,0,1,1-.68,1,1,0,0,1,1,.66,11.57,11.57,0,0,1,.23,3V58.84h8V40.67A26.12,26.12,0,0,0,38.57,35.56Z"/><path class="cls-2" d="M59,37a5.62,5.62,0,0,0-2.49-3.54c-1.37-1-3.42-1.44-6.13-1.44a10.59,10.59,0,0,0-5.52,1.28A6.5,6.5,0,0,0,42,36.21a12.48,12.48,0,0,0-.71,4.72V42.7h7.53V39.94a10.77,10.77,0,0,1,.2-2.73c.13-.35.47-.53,1-.53a1,1,0,0,1,1,.63A7.2,7.2,0,0,1,51.37,40a5.42,5.42,0,0,1-.28,2.18c-.18.36-1.59,1-4.23,2.09q-3.69,1.42-4.62,2.5c-.63.71-.94,2.06-.94,4V53q0,4,1.76,5.18a6.83,6.83,0,0,0,3.86,1.18,4.91,4.91,0,0,0,4.67-2.83v2.35h7.8V45.62A56.79,56.79,0,0,0,59,37ZM51.37,51.73a7.54,7.54,0,0,1-.23,2.45,1,1,0,0,1-1,.47,1.05,1.05,0,0,1-1.06-.59,8,8,0,0,1-.27-2.65,9.23,9.23,0,0,1,.31-2.74,6,6,0,0,1,2.23-2.36Z"/><path class="cls-2" d="M91.37,33.13V37.3H70.61V51.39a7.49,7.49,0,0,0,.27,2.9c.18.2.92.3,2.23.3v4.25H69.88A22.23,22.23,0,0,1,66,58.61a4.14,4.14,0,0,1-2.07-1,3.44,3.44,0,0,1-1.11-1.89,32.6,32.6,0,0,1-.22-5V37.3H60.84V33.13h1.73V29h8v4.15Z"/></g></g></svg>