<svg xmlns="http://www.w3.org/2000/svg" viewBox="0 0 416 416"><defs><style>.cls-1{fill:#2196bf;}</style></defs><g id="Layer_2" data-name="Layer 2"><g id="Layer_3" data-name="Layer 3"><path class="cls-1" d="M208,0C93.31,0,0,93.31,0,208S93.31,416,208,416a206.75,206.75,0,0,0,81.94-16.83h0c.58.21,1.15.41,1.73.6a49,49,0,0,0,12.89,2.43s0,0,0-.06c-.26-.45-.52-.9-.76-1.35-1.22-2.17-2.33-4.33-3.36-6.46-.27-.57-.54-1.13-.8-1.7-1.74-3.7-3.24-7.36-4.66-11-.16-.4-.31-.8-.46-1.19-2.22-5.84-4.08-11.59-5.68-17.27-.34-1.19-.66-2.38-1-3.57-.51-1.67-.85-3.45-1.29-5.13L285.9,352c-.21-.83-.35-1.72-.55-2.56l-1.1-5-.06-.31-.27-1.38-1.23-.94c-.54-.37-1.05-.73-1.5-1.06-.7-.5-1.3-.93-1.81-1.23l-.22-.13-.2-.14L277.1,338l-2-1.18-.17-.09-.17-.12c-.56-.37-1.3-.78-2.08-1.23l-1.59-.91c-.82-.43-1.57-.86-2.24-1.24s-1.29-.73-1.85-1l-.19-.09-.19-.1c-2.1-1.14-4.39-2.29-6.81-3.51-.88-.43-1.75-.87-2.62-1.32L254,325.57c-.72-.33-1.43-.68-2.15-1-3.08-1.49-6.2-3-9.44-4.6-2.48-1.22-5-2.48-7.65-3.82-1.27-.64-2.51-1.28-3.73-1.92q-3.41-1.79-6.58-3.55c0,1.3,0,2.61.1,3.92a96.44,96.44,0,0,0,2.06,16.1,79.64,79.64,0,0,0,5.22,15.86c.54,1.28,1.14,2.51,1.78,3.73s1.25,2.43,1.95,3.59a62.91,62.91,0,0,0,4.2,6.32l4.09,5.22c1.43,1.71,3,3.36,4.41,5s3.05,3.22,4.63,4.79l1.59,1.55A174.52,174.52,0,0,1,208,383c-96.49,0-175-78.5-175-175S111.51,33,208,33s175,78.51,175,175a174,174,0,0,1-35.27,105.25c-.4-1.15-.8-2.3-1.21-3.46-.51-1.33-.95-2.67-1.52-4s-1.17-2.71-1.8-4-1.27-2.69-2-4l-2.09-4c-1.64-2.82-3.36-5.64-5.19-8.38l14.27-47c.21,0,.42,0,.63,0a14.16,14.16,0,1,0-7.34-2l-12.71,41.95a137.89,137.89,0,0,0-11.51-13.08q-2.08-2.12-4.21-4.11c-1.42-1.35-2.86-2.65-4.3-3.93q-1.65-1.47-3.3-2.89a286.84,286.84,0,0,0-24.07-18.11c-11.55-7.85-22.3-14.35-32.71-20.52l-1.9-1.12c-.93-.55-1.86-1.1-2.78-1.66l-4.7-2.76c-.21-.12-.41-.23-.6-.36l-.55-.31-7.45-4.48c-11.13-6.76-22.12-13.84-32.56-22.31-1.77-1.37-2.84-2.3-4.14-3.34l-1.93-1.53c-.61-.54-1.16-1.1-1.75-1.65s-1.28-1.18-1.91-1.77a18.57,18.57,0,0,1-1.51-1.58L185.32,171l-.83-.87c-.15-.18-.3-.36-.44-.55l-.29-.37-1.48-1.86a21.55,21.55,0,0,1-1.46-1.88l-.83-1.2-.54-.77a19,19,0,0,1-1.34-2l-1.22-2.08a19.66,19.66,0,0,1-1.18-2.15c-.35-.74-.71-1.48-1.11-2.22a17.46,17.46,0,0,1-1.06-2.28c-4.76-10.85-7-24.3-6.62-38.9l32.7-12.07a27,27,0,1,0-5-15.61c0,.83,0,1.66.12,2.47l-26.6,9.83c.69-5.46,1.64-11,2.88-16.58q1.43-6.65,3.29-13.38c.62-2.24,1.29-4.48,1.95-6.76s1.44-4.5,2.22-6.79a119.89,119.89,0,0,0-21.82,19.38,138.82,138.82,0,0,0-17.63,24.39A121.75,121.75,0,0,0,127,128.11,110.24,110.24,0,0,0,123.41,162c0,1.48.16,3,.33,4.43s.31,3,.5,4.45.45,2.95.73,4.43l.88,4.44c.27,1.49.7,2.93,1.1,4.39l1.23,4.39a41.89,41.89,0,0,0,1.44,4.31l1.61,4.27.83,2.13.95,2.06,1.93,4.1c1.27,2.81,2.81,5.33,4.3,8,.75,1.3,1.5,2.63,2.29,3.91L144,221c1.66,2.44,3.44,5.08,4.87,7l2,2.77-42.61,22.45a27,27,0,0,0-9.64-6.71l7-26.16a14,14,0,0,0,8.78-2.88,14.18,14.18,0,0,0-15.09-23.89L78,169.5a14.18,14.18,0,1,0-5.23,4.64l21.36,24.08a14.19,14.19,0,0,0,.45,16.55,14,14,0,0,0,4.33,3.77h0l-7,26.14a27.25,27.25,0,1,0,9.89,50.68l18.21,24a14.18,14.18,0,1,0,24.69,12.85l22.4.86a24,24,0,0,0,20.65,21.2,24.22,24.22,0,0,0,3.28.23,24,24,0,1,0-23.66-28.43l-22.41-.86a14.18,14.18,0,0,0-19.37-10.09l-18.22-24a26.9,26.9,0,0,0,7.91-15.76,27.46,27.46,0,0,0,.25-3.72,26.52,26.52,0,0,0-.69-6L159.53,242a244.16,244.16,0,0,0,30.91,32.25,214.55,214.55,0,0,0,24.36,18.18l.1.07.41.26q2.26,1.44,4.54,2.81,2.53,1.56,5.09,3c.62.36,1.23.72,1.86,1.07,3.8,2.15,7.58,4.18,11.28,6.08.5.27,1,.53,1.53.79,8,4.07,15.5,7.62,22.41,11,3.35,1.7,6.71,3.35,9.76,5,1.63.81,3,1.69,4.58,2.49,1.41.85,3,1.67,4.33,2.57l2.15,1.29.24.16,1.83,1.21c1.14.69,2.18,1.47,3.26,2.23l.88.61c.15.12.3.24.45.34,1.17.92,2.46,1.78,3.58,2.78l.41.34a1.92,1.92,0,0,0,.21.16h0l1.41,1.14c.68.56,1.31,1.24,2,1.86l3.42,3.17.72.65c1.34,1.29,2.52,2.61,3.84,4l2,2c.19.24.39.47.59.7s.54.66.83,1l.33.38,1.84,2.11.94,1.07.82,1.08,1.66,2.22c.55.74,1.23,1.51,1.7,2.27,1,1.53,2.07,3.12,3.09,4.77s1.85,3.34,2.79,5.1l1.2,2.69c.42.92.83,1.87,1.15,2.81l1.06,2.92a10.49,10.49,0,0,1,.32,1c.19.66.33,1.33.53,2a56,56,0,0,1,1.42,6.44c.14,1,.27,1.95.38,2.95a52.78,52.78,0,0,1,0,11.39,29,29,0,0,0,6.61-4.41c1-.88,2.06-1.78,3-2.77s1.84-2,2.76-3.05a60,60,0,0,0,8.53-14.48,30.59,30.59,0,0,0,1.47-4l1.32-4.16c.76-2.79,1.24-5.64,1.81-8.57.18-1.53.33-3.07.46-4.63A207.31,207.31,0,0,0,416,208C416,93.31,322.7,0,208,0Zm-6.36,86.11a20,20,0,1,1,0,.07Zm-27.56,242.1a14.24,14.24,0,0,1,.36-1.84,17,17,0,0,1,18.8-12.73,17,17,0,0,1,6.28,2.15,17,17,0,1,1-25.36,17.58A17.14,17.14,0,0,1,174.08,328.21ZM108.3,274.43a20.16,20.16,0,0,1-5.23,11.07,21.2,21.2,0,0,1-2.58,2.33,19.91,19.91,0,0,1-3,1.89,20.26,20.26,0,1,1-9.3-38.28c.61,0,1.23,0,1.85.09.31,0,.61.06.92.1a20.69,20.69,0,0,1,5.84,1.7c.56.26,1.11.55,1.64.86a20,20,0,0,1,3.35,2.45,21.4,21.4,0,0,1,2.57,2.8,20.2,20.2,0,0,1,4,15Z"/><path class="cls-1" d="M223.88,188a222.89,222.89,0,0,1-18.94-13.66l-.09-.08-.09-.06c-1-.8-1.78-1.42-2.57-2.07l-1.43-1.17L199,169.54l-.53-.51-.77-.72c-.39-.39-.79-.76-1.2-1.13s-1.1-1-1.3-1.24l-.18-.23-.2-.23-1.62-1.75-.14-.14-.52-.55,0-.06-.39-.5-.08-.1c4.8-12,12.92-22.36,23.62-28.49-.06,3.47-.12,6.72-.15,9.85s.15,6.14.36,9a114.35,114.35,0,0,0,2.36,16.29A156.22,156.22,0,0,0,223.88,188Z"/><path class="cls-1" d="M327.83,181.07c-1.19,9.31-2.58,16.73-4.21,24.74a376.78,376.78,0,0,1-11.05,40.37l-.09-.08,0,0,0,0a296.89,296.89,0,0,0-24.94-18.79c-12.39-8.42-23.8-15.26-34.8-21.77q3.75-9.45,7.57-18.8c2.73-6.64,5.62-13.88,8-19.43,2.31-5.9,4.52-11.78,6.27-17.66a118.69,118.69,0,0,0,4-17.66,83.52,83.52,0,0,0,.72-18.16,68.13,68.13,0,0,0-4.44-19.29,69.82,69.82,0,0,0-4.8-10,68.33,68.33,0,0,0-6.87-9.89,40.24,40.24,0,0,1,12.88,1.62,58.42,58.42,0,0,1,12.45,5.08,69.42,69.42,0,0,1,21.2,18.41,88.57,88.57,0,0,1,13.49,25.69,114.29,114.29,0,0,1,5.41,28.06A153.11,153.11,0,0,1,327.83,181.07Z"/></g></g></svg>