<svg xmlns="http://www.w3.org/2000/svg" viewBox="0 0 198.54 55.83"><defs><style>.cls-1{fill:#465b82;}.cls-2{fill:#f68b3d;}</style></defs><g id="Layer_2" data-name="Layer 2"><g id="Layer_1-2" data-name="Layer 1"><path class="cls-1" d="M15.15,44a12.36,12.36,0,0,1-.41,3.9,1.51,1.51,0,0,1-1.54,1,1.57,1.57,0,0,1-1.47-1,6.86,6.86,0,0,1-.5-3V27.62a9,9,0,0,1,.33-3.11,1.3,1.3,0,0,1,1.31-.7,1.34,1.34,0,0,1,1.33.79,8.42,8.42,0,0,1,.36,3v4.25H25.15a24.42,24.42,0,0,0-1-8A9.09,9.09,0,0,0,20,19.14a14.34,14.34,0,0,0-7.5-1.86A14.21,14.21,0,0,0,5,19.16a9.22,9.22,0,0,0-4,4.26A20.35,20.35,0,0,0,0,30.51V41a23.57,23.57,0,0,0,1.15,8.32,8.91,8.91,0,0,0,3.94,4.56,14.92,14.92,0,0,0,7.53,1.63,14.7,14.7,0,0,0,6.25-1.19,9.86,9.86,0,0,0,4.1-3.5,10.45,10.45,0,0,0,1.86-4.53,56.92,56.92,0,0,0,.32-6.63h-10Z"/><path class="cls-1" d="M54,22.24a6,6,0,0,0-2.53-3.46,8.34,8.34,0,0,0-5-1.5,9.56,9.56,0,0,0-3.6.67,10,10,0,0,0-3.12,2V9.83H28.49v45H39.72V28.51a12.54,12.54,0,0,1,.36-3.75,1.53,1.53,0,0,1,2.82,0,16.27,16.27,0,0,1,.32,4.14v26H54.45V29.4A37.32,37.32,0,0,0,54,22.24Z"/><path class="cls-1" d="M82.54,24.24a7.83,7.83,0,0,0-3.47-4.94q-2.89-2-8.59-2a14.89,14.89,0,0,0-7.73,1.78,9.14,9.14,0,0,0-4,4.1,17.64,17.64,0,0,0-1,6.6v2.47H68.34V28.37a14.66,14.66,0,0,1,.28-3.82c.18-.49.66-.74,1.42-.74a1.48,1.48,0,0,1,1.43.88,10.22,10.22,0,0,1,.43,3.76,7.75,7.75,0,0,1-.39,3.06q-.39.75-5.92,2.92-5.18,2-6.48,3.5t-1.3,5.64v3q0,5.59,2.46,7.24a9.5,9.5,0,0,0,5.4,1.66,6.84,6.84,0,0,0,6.53-4v3.29H83.13V36.32A77.19,77.19,0,0,0,82.54,24.24ZM71.9,44.88a10.61,10.61,0,0,1-.32,3.43c-.21.44-.67.65-1.38.65a1.45,1.45,0,0,1-1.48-.83,11.17,11.17,0,0,1-.38-3.7,13,13,0,0,1,.43-3.83q.44-1.34,3.13-3.31Z"/><path class="cls-1" d="M99.2,48.46c-.25-.27-.37-1.63-.37-4.05V24.67h3V18.84h-3V13H87.57v5.81H85.16v5.83h2.41V43.41a47,47,0,0,0,.31,7A4.84,4.84,0,0,0,89.44,53a5.83,5.83,0,0,0,2.89,1.47,32.58,32.58,0,0,0,5.47.32h4.53V48.88C100.5,48.88,99.45,48.74,99.2,48.46Z"/><path class="cls-2" d="M160,20.87V40.3a21,21,0,0,1-.38,5.18,1.65,1.65,0,0,1-1.74,1.1,1.53,1.53,0,0,1-1.58-1,16.65,16.65,0,0,1-.38-4.58V0H141.67V32.36q0,9.26.33,12.14A11.71,11.71,0,0,0,144.2,50a13.05,13.05,0,0,0,5.61,4.22,21.62,21.62,0,0,0,8.64,1.62,19.67,19.67,0,0,0,7.69-1.37,12.49,12.49,0,0,0,5.25-4,11.84,11.84,0,0,0,2.4-5.17,63.73,63.73,0,0,0,.4-8.73V20.87ZM160,0V8.11h14.22V0Z"/><path class="cls-2" d="M136.57,28.85q-1.75-2.59-6.68-3.7c2.94-.68,4.92-1.65,5.92-2.91s1.51-3.48,1.51-6.68q0-7.1-2.13-10.28a10.08,10.08,0,0,0-5.59-4.23,37.32,37.32,0,0,0-10.19-1H105.23V54.68h16.45q8.58,0,11.35-1a6.81,6.81,0,0,0,4-3.65q1.27-2.65,1.27-8.21V36.77Q138.33,31.43,136.57,28.85ZM124.11,40.23c0,2.21-.28,3.59-.83,4.15s-1.83.88-3.83.95V30c2.12.07,3.42.35,3.92.84s.74,1.92.74,4.26Zm-.57-19.78c-.39.69-1.28,1-2.67,1-.34,0-.81,0-1.42,0V9.36a10.84,10.84,0,0,1,3,.3,2.27,2.27,0,0,1,1.24,1.3,9.69,9.69,0,0,1,.47,3.6C124.11,17.8,123.92,19.77,123.54,20.45Z"/><path class="cls-2" d="M136.57,28.85q-1.75-2.59-6.68-3.7c2.94-.68,4.92-1.65,5.92-2.91s1.51-3.48,1.51-6.68q0-7.1-2.13-10.28a10.08,10.08,0,0,0-5.59-4.23,37.32,37.32,0,0,0-10.19-1H105.23V54.68h16.45q8.58,0,11.35-1a6.81,6.81,0,0,0,4-3.65q1.27-2.65,1.27-8.21V36.77Q138.33,31.43,136.57,28.85ZM124.11,40.23c0,2.21-.28,3.59-.83,4.15s-1.83.88-3.83.95V30c2.12.07,3.42.35,3.92.84s.74,1.92.74,4.26Zm-.57-19.78c-.39.69-1.28,1-2.67,1-.34,0-.81,0-1.42,0V9.36a10.84,10.84,0,0,1,3,.3,2.27,2.27,0,0,1,1.24,1.3,9.69,9.69,0,0,1,.47,3.6C124.11,17.8,123.92,19.77,123.54,20.45Z"/><rect class="cls-1" x="159.96" y="10.94" width="0.01" height="7.1"/><path class="cls-1" d="M160,10.94V18h0v-7.1Z"/><path class="cls-1" d="M198.54,47.46v7.22H193a39.33,39.33,0,0,1-6.65-.38,7.18,7.18,0,0,1-3.52-1.79A6,6,0,0,1,181,49.3a56.76,56.76,0,0,1-.37-8.5V18H160v-7.1H180.2l.4-7.06h13.68v7.06H198V18h-3.68V42c0,2.95.15,4.59.45,4.93S196.31,47.46,198.54,47.46Z"/></g></g></svg>